G04 #@! TF.GenerationSoftware,KiCad,Pcbnew,(6.0.2)*
G04 #@! TF.CreationDate,2022-11-22T12:47:53+01:00*
G04 #@! TF.ProjectId,plytka,706c7974-6b61-42e6-9b69-6361645f7063,rev?*
G04 #@! TF.SameCoordinates,Original*
G04 #@! TF.FileFunction,Soldermask,Top*
G04 #@! TF.FilePolarity,Negative*
%FSLAX46Y46*%
G04 Gerber Fmt 4.6, Leading zero omitted, Abs format (unit mm)*
G04 Created by KiCad (PCBNEW (6.0.2)) date 2022-11-22 12:47:53*
%MOMM*%
%LPD*%
G01*
G04 APERTURE LIST*
%ADD10R,1.700000X1.700000*%
%ADD11O,1.700000X1.700000*%
G04 APERTURE END LIST*
D10*
X63500000Y-2540000D03*
D11*
X66040000Y-2540000D03*
X68580000Y-2540000D03*
X71120000Y-2540000D03*
X73660000Y-2540000D03*
X76200000Y-2540000D03*
D10*
X58420000Y-40640000D03*
D11*
X58420000Y-38100000D03*
X58420000Y-35560000D03*
X58420000Y-33020000D03*
X58420000Y-30480000D03*
X58420000Y-27940000D03*
X58420000Y-25400000D03*
X58420000Y-22860000D03*
X58420000Y-20320000D03*
X58420000Y-17780000D03*
X58420000Y-15240000D03*
X58420000Y-12700000D03*
X58420000Y-10160000D03*
X58420000Y-7620000D03*
D10*
X88900000Y-12700000D03*
D11*
X91440000Y-12700000D03*
X93980000Y-12700000D03*
X96520000Y-12700000D03*
X99060000Y-12700000D03*
X101600000Y-12700000D03*
D10*
X43180000Y-40640000D03*
D11*
X43180000Y-38100000D03*
X43180000Y-35560000D03*
X43180000Y-33020000D03*
X43180000Y-30480000D03*
X43180000Y-27940000D03*
X43180000Y-25400000D03*
X43180000Y-22860000D03*
X43180000Y-20320000D03*
X43180000Y-17780000D03*
X43180000Y-15240000D03*
X43180000Y-12700000D03*
X43180000Y-10160000D03*
X43180000Y-7620000D03*
D10*
X10160000Y-12700000D03*
D11*
X12700000Y-12700000D03*
X15240000Y-12700000D03*
X17780000Y-12700000D03*
X20320000Y-12700000D03*
X22860000Y-12700000D03*
D10*
X106680000Y-45720000D03*
D11*
X104140000Y-45720000D03*
X101600000Y-45720000D03*
X99060000Y-45720000D03*
X96520000Y-45720000D03*
X93980000Y-45720000D03*
X91440000Y-45720000D03*
X88900000Y-45720000D03*
D10*
X73660000Y-17780000D03*
D11*
X71120000Y-17780000D03*
X68580000Y-17780000D03*
X66040000Y-17780000D03*
X63500000Y-17780000D03*
D10*
X10160000Y-10160000D03*
D11*
X12700000Y-10160000D03*
X15240000Y-10160000D03*
X17780000Y-10160000D03*
X20320000Y-10160000D03*
X22860000Y-10160000D03*
D10*
X22860000Y-48260000D03*
D11*
X20320000Y-48260000D03*
X17780000Y-48260000D03*
X15240000Y-48260000D03*
X12700000Y-48260000D03*
X10160000Y-48260000D03*
X7620000Y-48260000D03*
D10*
X27940000Y-17805000D03*
D11*
X25400000Y-17805000D03*
X22860000Y-17805000D03*
X20320000Y-17805000D03*
X17780000Y-17805000D03*
X15240000Y-17805000D03*
X12700000Y-17805000D03*
X10160000Y-17805000D03*
D10*
X88900000Y-35560000D03*
D11*
X91440000Y-35560000D03*
X93980000Y-35560000D03*
X96520000Y-35560000D03*
X99060000Y-35560000D03*
X101600000Y-35560000D03*
D10*
X63500000Y-12700000D03*
D11*
X66040000Y-12700000D03*
X68580000Y-12700000D03*
X71120000Y-12700000D03*
X73660000Y-12700000D03*
X76200000Y-12700000D03*
M02*
