M48
; DRILL file {KiCad (6.0.2)} date Tue Nov 22 12:49:54 2022
; FORMAT={-:-/ absolute / metric / decimal}
; #@! TF.CreationDate,2022-11-22T12:49:54+01:00
; #@! TF.GenerationSoftware,Kicad,Pcbnew,(6.0.2)
; #@! TF.FileFunction,Plated,1,2,PTH
FMAT,2
METRIC
; #@! TA.AperFunction,Plated,PTH,ComponentDrill
T1C1.000
; #@! TA.AperFunction,Plated,PTH,ViaDrill
T2C1.016
%
G90
G05
T1
X7.62Y-48.26
X10.16Y-10.16
X10.16Y-12.7
X10.16Y-17.805
X10.16Y-48.26
X12.7Y-10.16
X12.7Y-12.7
X12.7Y-17.805
X12.7Y-48.26
X15.24Y-10.16
X15.24Y-12.7
X15.24Y-17.805
X15.24Y-48.26
X17.78Y-10.16
X17.78Y-12.7
X17.78Y-17.805
X17.78Y-48.26
X20.32Y-10.16
X20.32Y-12.7
X20.32Y-17.805
X20.32Y-48.26
X22.86Y-10.16
X22.86Y-12.7
X22.86Y-17.805
X22.86Y-48.26
X25.4Y-17.805
X27.94Y-17.805
X43.18Y-7.62
X43.18Y-10.16
X43.18Y-12.7
X43.18Y-15.24
X43.18Y-17.78
X43.18Y-20.32
X43.18Y-22.86
X43.18Y-25.4
X43.18Y-27.94
X43.18Y-30.48
X43.18Y-33.02
X43.18Y-35.56
X43.18Y-38.1
X43.18Y-40.64
X58.42Y-7.62
X58.42Y-10.16
X58.42Y-12.7
X58.42Y-15.24
X58.42Y-17.78
X58.42Y-20.32
X58.42Y-22.86
X58.42Y-25.4
X58.42Y-27.94
X58.42Y-30.48
X58.42Y-33.02
X58.42Y-35.56
X58.42Y-38.1
X58.42Y-40.64
X63.5Y-2.54
X63.5Y-12.7
X63.5Y-17.78
X66.04Y-2.54
X66.04Y-12.7
X66.04Y-17.78
X68.58Y-2.54
X68.58Y-12.7
X68.58Y-17.78
X71.12Y-2.54
X71.12Y-12.7
X71.12Y-17.78
X73.66Y-2.54
X73.66Y-12.7
X73.66Y-17.78
X76.2Y-2.54
X76.2Y-12.7
X88.9Y-12.7
X88.9Y-35.56
X88.9Y-45.72
X91.44Y-12.7
X91.44Y-35.56
X91.44Y-45.72
X93.98Y-12.7
X93.98Y-35.56
X93.98Y-45.72
X96.52Y-12.7
X96.52Y-35.56
X96.52Y-45.72
X99.06Y-12.7
X99.06Y-35.56
X99.06Y-45.72
X101.6Y-12.7
X101.6Y-35.56
X101.6Y-45.72
X104.14Y-45.72
X106.68Y-45.72
T2
X15.24Y-6.985
X17.78Y-6.985
X19.05Y-15.24
X20.32Y-6.985
X22.86Y-6.985
X31.242Y-15.24
X46.99Y-20.32
X46.99Y-22.86
X46.99Y-30.48
X46.99Y-33.02
X53.34Y-10.16
X53.34Y-12.7
X53.34Y-15.24
X61.595Y-40.64
X71.12Y-5.715
X81.915Y-28.575
X93.98Y-32.385
X96.52Y-32.385
T0
M30
