G04 #@! TF.GenerationSoftware,KiCad,Pcbnew,(6.0.2)*
G04 #@! TF.CreationDate,2022-11-22T12:47:53+01:00*
G04 #@! TF.ProjectId,plytka,706c7974-6b61-42e6-9b69-6361645f7063,rev?*
G04 #@! TF.SameCoordinates,Original*
G04 #@! TF.FileFunction,Legend,Top*
G04 #@! TF.FilePolarity,Positive*
%FSLAX46Y46*%
G04 Gerber Fmt 4.6, Leading zero omitted, Abs format (unit mm)*
G04 Created by KiCad (PCBNEW (6.0.2)) date 2022-11-22 12:47:53*
%MOMM*%
%LPD*%
G01*
G04 APERTURE LIST*
%ADD10C,0.150000*%
%ADD11C,0.120000*%
%ADD12R,1.700000X1.700000*%
%ADD13O,1.700000X1.700000*%
G04 APERTURE END LIST*
D10*
X60182380Y-2873333D02*
X60896666Y-2873333D01*
X61039523Y-2920952D01*
X61134761Y-3016190D01*
X61182380Y-3159047D01*
X61182380Y-3254285D01*
X60277619Y-2444761D02*
X60230000Y-2397142D01*
X60182380Y-2301904D01*
X60182380Y-2063809D01*
X60230000Y-1968571D01*
X60277619Y-1920952D01*
X60372857Y-1873333D01*
X60468095Y-1873333D01*
X60610952Y-1920952D01*
X61182380Y-2492380D01*
X61182380Y-1873333D01*
X58086666Y-42862380D02*
X58086666Y-43576666D01*
X58039047Y-43719523D01*
X57943809Y-43814761D01*
X57800952Y-43862380D01*
X57705714Y-43862380D01*
X58610476Y-43862380D02*
X58800952Y-43862380D01*
X58896190Y-43814761D01*
X58943809Y-43767142D01*
X59039047Y-43624285D01*
X59086666Y-43433809D01*
X59086666Y-43052857D01*
X59039047Y-42957619D01*
X58991428Y-42910000D01*
X58896190Y-42862380D01*
X58705714Y-42862380D01*
X58610476Y-42910000D01*
X58562857Y-42957619D01*
X58515238Y-43052857D01*
X58515238Y-43290952D01*
X58562857Y-43386190D01*
X58610476Y-43433809D01*
X58705714Y-43481428D01*
X58896190Y-43481428D01*
X58991428Y-43433809D01*
X59039047Y-43386190D01*
X59086666Y-43290952D01*
X85582380Y-13509523D02*
X86296666Y-13509523D01*
X86439523Y-13557142D01*
X86534761Y-13652380D01*
X86582380Y-13795238D01*
X86582380Y-13890476D01*
X86582380Y-12509523D02*
X86582380Y-13080952D01*
X86582380Y-12795238D02*
X85582380Y-12795238D01*
X85725238Y-12890476D01*
X85820476Y-12985714D01*
X85868095Y-13080952D01*
X86582380Y-11557142D02*
X86582380Y-12128571D01*
X86582380Y-11842857D02*
X85582380Y-11842857D01*
X85725238Y-11938095D01*
X85820476Y-12033333D01*
X85868095Y-12128571D01*
X42370476Y-42862380D02*
X42370476Y-43576666D01*
X42322857Y-43719523D01*
X42227619Y-43814761D01*
X42084761Y-43862380D01*
X41989523Y-43862380D01*
X43370476Y-43862380D02*
X42799047Y-43862380D01*
X43084761Y-43862380D02*
X43084761Y-42862380D01*
X42989523Y-43005238D01*
X42894285Y-43100476D01*
X42799047Y-43148095D01*
X43751428Y-42957619D02*
X43799047Y-42910000D01*
X43894285Y-42862380D01*
X44132380Y-42862380D01*
X44227619Y-42910000D01*
X44275238Y-42957619D01*
X44322857Y-43052857D01*
X44322857Y-43148095D01*
X44275238Y-43290952D01*
X43703809Y-43862380D01*
X44322857Y-43862380D01*
X6842380Y-13033333D02*
X7556666Y-13033333D01*
X7699523Y-13080952D01*
X7794761Y-13176190D01*
X7842380Y-13319047D01*
X7842380Y-13414285D01*
X7842380Y-12033333D02*
X7842380Y-12604761D01*
X7842380Y-12319047D02*
X6842380Y-12319047D01*
X6985238Y-12414285D01*
X7080476Y-12509523D01*
X7128095Y-12604761D01*
X108902380Y-46053333D02*
X109616666Y-46053333D01*
X109759523Y-46100952D01*
X109854761Y-46196190D01*
X109902380Y-46339047D01*
X109902380Y-46434285D01*
X108902380Y-45386666D02*
X108902380Y-45291428D01*
X108950000Y-45196190D01*
X108997619Y-45148571D01*
X109092857Y-45100952D01*
X109283333Y-45053333D01*
X109521428Y-45053333D01*
X109711904Y-45100952D01*
X109807142Y-45148571D01*
X109854761Y-45196190D01*
X109902380Y-45291428D01*
X109902380Y-45386666D01*
X109854761Y-45481904D01*
X109807142Y-45529523D01*
X109711904Y-45577142D01*
X109521428Y-45624761D01*
X109283333Y-45624761D01*
X109092857Y-45577142D01*
X108997619Y-45529523D01*
X108950000Y-45481904D01*
X108902380Y-45386666D01*
X75882380Y-18113333D02*
X76596666Y-18113333D01*
X76739523Y-18160952D01*
X76834761Y-18256190D01*
X76882380Y-18399047D01*
X76882380Y-18494285D01*
X75882380Y-17732380D02*
X75882380Y-17065714D01*
X76882380Y-17494285D01*
X6842380Y-10493333D02*
X7556666Y-10493333D01*
X7699523Y-10540952D01*
X7794761Y-10636190D01*
X7842380Y-10779047D01*
X7842380Y-10874285D01*
X6842380Y-10112380D02*
X6842380Y-9493333D01*
X7223333Y-9826666D01*
X7223333Y-9683809D01*
X7270952Y-9588571D01*
X7318571Y-9540952D01*
X7413809Y-9493333D01*
X7651904Y-9493333D01*
X7747142Y-9540952D01*
X7794761Y-9588571D01*
X7842380Y-9683809D01*
X7842380Y-9969523D01*
X7794761Y-10064761D01*
X7747142Y-10112380D01*
X25082380Y-48593333D02*
X25796666Y-48593333D01*
X25939523Y-48640952D01*
X26034761Y-48736190D01*
X26082380Y-48879047D01*
X26082380Y-48974285D01*
X25082380Y-47640952D02*
X25082380Y-48117142D01*
X25558571Y-48164761D01*
X25510952Y-48117142D01*
X25463333Y-48021904D01*
X25463333Y-47783809D01*
X25510952Y-47688571D01*
X25558571Y-47640952D01*
X25653809Y-47593333D01*
X25891904Y-47593333D01*
X25987142Y-47640952D01*
X26034761Y-47688571D01*
X26082380Y-47783809D01*
X26082380Y-48021904D01*
X26034761Y-48117142D01*
X25987142Y-48164761D01*
X30162380Y-18138333D02*
X30876666Y-18138333D01*
X31019523Y-18185952D01*
X31114761Y-18281190D01*
X31162380Y-18424047D01*
X31162380Y-18519285D01*
X30495714Y-17233571D02*
X31162380Y-17233571D01*
X30114761Y-17471666D02*
X30829047Y-17709761D01*
X30829047Y-17090714D01*
X85582380Y-36369523D02*
X86296666Y-36369523D01*
X86439523Y-36417142D01*
X86534761Y-36512380D01*
X86582380Y-36655238D01*
X86582380Y-36750476D01*
X86582380Y-35369523D02*
X86582380Y-35940952D01*
X86582380Y-35655238D02*
X85582380Y-35655238D01*
X85725238Y-35750476D01*
X85820476Y-35845714D01*
X85868095Y-35940952D01*
X85582380Y-34750476D02*
X85582380Y-34655238D01*
X85630000Y-34560000D01*
X85677619Y-34512380D01*
X85772857Y-34464761D01*
X85963333Y-34417142D01*
X86201428Y-34417142D01*
X86391904Y-34464761D01*
X86487142Y-34512380D01*
X86534761Y-34560000D01*
X86582380Y-34655238D01*
X86582380Y-34750476D01*
X86534761Y-34845714D01*
X86487142Y-34893333D01*
X86391904Y-34940952D01*
X86201428Y-34988571D01*
X85963333Y-34988571D01*
X85772857Y-34940952D01*
X85677619Y-34893333D01*
X85630000Y-34845714D01*
X85582380Y-34750476D01*
X60182380Y-13033333D02*
X60896666Y-13033333D01*
X61039523Y-13080952D01*
X61134761Y-13176190D01*
X61182380Y-13319047D01*
X61182380Y-13414285D01*
X60182380Y-12128571D02*
X60182380Y-12319047D01*
X60230000Y-12414285D01*
X60277619Y-12461904D01*
X60420476Y-12557142D01*
X60610952Y-12604761D01*
X60991904Y-12604761D01*
X61087142Y-12557142D01*
X61134761Y-12509523D01*
X61182380Y-12414285D01*
X61182380Y-12223809D01*
X61134761Y-12128571D01*
X61087142Y-12080952D01*
X60991904Y-12033333D01*
X60753809Y-12033333D01*
X60658571Y-12080952D01*
X60610952Y-12128571D01*
X60563333Y-12223809D01*
X60563333Y-12414285D01*
X60610952Y-12509523D01*
X60658571Y-12557142D01*
X60753809Y-12604761D01*
D11*
X77530000Y-3870000D02*
X77530000Y-1210000D01*
X62170000Y-2540000D02*
X62170000Y-1210000D01*
X64770000Y-3870000D02*
X77530000Y-3870000D01*
X64770000Y-3870000D02*
X64770000Y-1210000D01*
X64770000Y-1210000D02*
X77530000Y-1210000D01*
X62170000Y-1210000D02*
X63500000Y-1210000D01*
X58420000Y-41970000D02*
X57090000Y-41970000D01*
X59750000Y-6290000D02*
X57090000Y-6290000D01*
X57090000Y-41970000D02*
X57090000Y-40640000D01*
X59750000Y-39370000D02*
X57090000Y-39370000D01*
X57090000Y-39370000D02*
X57090000Y-6290000D01*
X59750000Y-39370000D02*
X59750000Y-6290000D01*
X87570000Y-11370000D02*
X88900000Y-11370000D01*
X90170000Y-11370000D02*
X102930000Y-11370000D01*
X102930000Y-14030000D02*
X102930000Y-11370000D01*
X90170000Y-14030000D02*
X102930000Y-14030000D01*
X87570000Y-12700000D02*
X87570000Y-11370000D01*
X90170000Y-14030000D02*
X90170000Y-11370000D01*
X44510000Y-39370000D02*
X41850000Y-39370000D01*
X44510000Y-6290000D02*
X41850000Y-6290000D01*
X43180000Y-41970000D02*
X41850000Y-41970000D01*
X41850000Y-41970000D02*
X41850000Y-40640000D01*
X44510000Y-39370000D02*
X44510000Y-6290000D01*
X41850000Y-39370000D02*
X41850000Y-6290000D01*
X8830000Y-12700000D02*
X8830000Y-11370000D01*
X11430000Y-11370000D02*
X24190000Y-11370000D01*
X8830000Y-11370000D02*
X10160000Y-11370000D01*
X11430000Y-14030000D02*
X11430000Y-11370000D01*
X11430000Y-14030000D02*
X24190000Y-14030000D01*
X24190000Y-14030000D02*
X24190000Y-11370000D01*
X108010000Y-45720000D02*
X108010000Y-47050000D01*
X105410000Y-44390000D02*
X105410000Y-47050000D01*
X105410000Y-47050000D02*
X87570000Y-47050000D01*
X87570000Y-44390000D02*
X87570000Y-47050000D01*
X108010000Y-47050000D02*
X106680000Y-47050000D01*
X105410000Y-44390000D02*
X87570000Y-44390000D01*
X72390000Y-19110000D02*
X62170000Y-19110000D01*
X62170000Y-16450000D02*
X62170000Y-19110000D01*
X74990000Y-19110000D02*
X73660000Y-19110000D01*
X72390000Y-16450000D02*
X72390000Y-19110000D01*
X72390000Y-16450000D02*
X62170000Y-16450000D01*
X74990000Y-17780000D02*
X74990000Y-19110000D01*
X24190000Y-11490000D02*
X24190000Y-8830000D01*
X11430000Y-8830000D02*
X24190000Y-8830000D01*
X11430000Y-11490000D02*
X11430000Y-8830000D01*
X8830000Y-10160000D02*
X8830000Y-8830000D01*
X11430000Y-11490000D02*
X24190000Y-11490000D01*
X8830000Y-8830000D02*
X10160000Y-8830000D01*
X24190000Y-48260000D02*
X24190000Y-49590000D01*
X21590000Y-49590000D02*
X6290000Y-49590000D01*
X21590000Y-46930000D02*
X21590000Y-49590000D01*
X6290000Y-46930000D02*
X6290000Y-49590000D01*
X21590000Y-46930000D02*
X6290000Y-46930000D01*
X24190000Y-49590000D02*
X22860000Y-49590000D01*
X26670000Y-19135000D02*
X8830000Y-19135000D01*
X29270000Y-17805000D02*
X29270000Y-19135000D01*
X26670000Y-16475000D02*
X26670000Y-19135000D01*
X8830000Y-16475000D02*
X8830000Y-19135000D01*
X29270000Y-19135000D02*
X27940000Y-19135000D01*
X26670000Y-16475000D02*
X8830000Y-16475000D01*
X90170000Y-34230000D02*
X102930000Y-34230000D01*
X102930000Y-36890000D02*
X102930000Y-34230000D01*
X90170000Y-36890000D02*
X102930000Y-36890000D01*
X90170000Y-36890000D02*
X90170000Y-34230000D01*
X87570000Y-35560000D02*
X87570000Y-34230000D01*
X87570000Y-34230000D02*
X88900000Y-34230000D01*
X64770000Y-14030000D02*
X64770000Y-11370000D01*
X64770000Y-11370000D02*
X77530000Y-11370000D01*
X62170000Y-12700000D02*
X62170000Y-11370000D01*
X62170000Y-11370000D02*
X63500000Y-11370000D01*
X77530000Y-14030000D02*
X77530000Y-11370000D01*
X64770000Y-14030000D02*
X77530000Y-14030000D01*
%LPC*%
D12*
X63500000Y-2540000D03*
D13*
X66040000Y-2540000D03*
X68580000Y-2540000D03*
X71120000Y-2540000D03*
X73660000Y-2540000D03*
X76200000Y-2540000D03*
D12*
X58420000Y-40640000D03*
D13*
X58420000Y-38100000D03*
X58420000Y-35560000D03*
X58420000Y-33020000D03*
X58420000Y-30480000D03*
X58420000Y-27940000D03*
X58420000Y-25400000D03*
X58420000Y-22860000D03*
X58420000Y-20320000D03*
X58420000Y-17780000D03*
X58420000Y-15240000D03*
X58420000Y-12700000D03*
X58420000Y-10160000D03*
X58420000Y-7620000D03*
D12*
X88900000Y-12700000D03*
D13*
X91440000Y-12700000D03*
X93980000Y-12700000D03*
X96520000Y-12700000D03*
X99060000Y-12700000D03*
X101600000Y-12700000D03*
D12*
X43180000Y-40640000D03*
D13*
X43180000Y-38100000D03*
X43180000Y-35560000D03*
X43180000Y-33020000D03*
X43180000Y-30480000D03*
X43180000Y-27940000D03*
X43180000Y-25400000D03*
X43180000Y-22860000D03*
X43180000Y-20320000D03*
X43180000Y-17780000D03*
X43180000Y-15240000D03*
X43180000Y-12700000D03*
X43180000Y-10160000D03*
X43180000Y-7620000D03*
D12*
X10160000Y-12700000D03*
D13*
X12700000Y-12700000D03*
X15240000Y-12700000D03*
X17780000Y-12700000D03*
X20320000Y-12700000D03*
X22860000Y-12700000D03*
D12*
X106680000Y-45720000D03*
D13*
X104140000Y-45720000D03*
X101600000Y-45720000D03*
X99060000Y-45720000D03*
X96520000Y-45720000D03*
X93980000Y-45720000D03*
X91440000Y-45720000D03*
X88900000Y-45720000D03*
D12*
X73660000Y-17780000D03*
D13*
X71120000Y-17780000D03*
X68580000Y-17780000D03*
X66040000Y-17780000D03*
X63500000Y-17780000D03*
D12*
X10160000Y-10160000D03*
D13*
X12700000Y-10160000D03*
X15240000Y-10160000D03*
X17780000Y-10160000D03*
X20320000Y-10160000D03*
X22860000Y-10160000D03*
D12*
X22860000Y-48260000D03*
D13*
X20320000Y-48260000D03*
X17780000Y-48260000D03*
X15240000Y-48260000D03*
X12700000Y-48260000D03*
X10160000Y-48260000D03*
X7620000Y-48260000D03*
D12*
X27940000Y-17805000D03*
D13*
X25400000Y-17805000D03*
X22860000Y-17805000D03*
X20320000Y-17805000D03*
X17780000Y-17805000D03*
X15240000Y-17805000D03*
X12700000Y-17805000D03*
X10160000Y-17805000D03*
D12*
X88900000Y-35560000D03*
D13*
X91440000Y-35560000D03*
X93980000Y-35560000D03*
X96520000Y-35560000D03*
X99060000Y-35560000D03*
X101600000Y-35560000D03*
D12*
X63500000Y-12700000D03*
D13*
X66040000Y-12700000D03*
X68580000Y-12700000D03*
X71120000Y-12700000D03*
X73660000Y-12700000D03*
X76200000Y-12700000D03*
M02*
